# xmcd CD database file
#
# Track frame offsets:
#	150
#	20947
#	48892
#	72142
#	101112
#	147172
#	164932
#	196470
#	214312
#	237545
#
# Disc length: 3669 seconds
#
# Revision: 3
# Processed by: cddbd v1.4PL0 Copyright (c) Steve Scherf et al.
# Submitted via: CDex 1.50
#
DISCID=a00e530a
DTITLE=The Steve Spiegl Big Band - Perspectives
DYEAR=1982
DGENRE=Jazz
TTITLE0=Hot!
TTITLE1=The Sphynx's Lair
TTITLE2=Mirage
TTITLE3=Bacchanalia
TTITLE4=Spanish Steps
TTITLE5=Parfait
TTITLE6=Willie
TTITLE7=Together Again
TTITLE8=A Day in the Life
TTITLE9=The Late Great Planet Earth
EXTD=YEAR: 1982
EXTT0=
EXTT1=
EXTT2=
EXTT3=
EXTT4=
EXTT5=
EXTT6=
EXTT7=
EXTT8=
EXTT9=
PLAYORDER=
